<svg width="16" height="12" viewBox="0 0 16 12" fill="none" xmlns="http://www.w3.org/2000/svg">
<path d="M6.5 2.44V3.285H15.9913C15.978 3.0125 15.9495 2.668 15.8475 2.44" fill="#EC1C24"/>
<path d="M15.4 1.595H6.5V2.44H15.8475C15.746 2.12475 15.595 1.83725 15.4 1.595Z" fill="#E6E7E8"/>
<path d="M13.5 0.75H6.5V1.595H15.4C14.9828 1.0725 14.296 0.75 13.5 0.75Z" fill="#EC1C24"/>
<path d="M15.9913 3.285H6.5V4.13H16V3.56675C16 3.5165 15.9967 3.4675 15.9952 3.41825C15.9942 3.40475 15.9928 3.37 15.9913 3.285Z" fill="#E6E7E8"/>
<path d="M6.5 4.975H16V4.13H6.5V4.975Z" fill="#EC1C24"/>
<path d="M6.5 5.82001H16V4.97501H6.5V5.82001Z" fill="#E6E7E8"/>
<path d="M6.5 5.82001H16V6.66501H6.5V5.82001Z" fill="#EC1C24"/>
<path d="M0 6.66501V7.51001H16V6.66501H6.5H0Z" fill="#E6E7E8"/>
<path d="M0 7.51001H16V8.35501H0V7.51001Z" fill="#EC1C24"/>
<path d="M0.00125 8.87476C0.00125 8.87476 -0.001 9.07951 0.005 9.20001H15.995C16.002 9.07651 15.9987 8.87476 15.9987 8.87476L16 8.35501H0L0.00125 8.87476Z" fill="#E6E7E8"/>
<path d="M2.49953 11.75H13.4995C14.2978 11.75 14.9613 11.46 15.4145 10.89H0.582031C1.05003 11.4725 1.72603 11.75 2.49828 11.75" fill="#EC1C24"/>
<path d="M0.583867 10.89H15.4164C15.6141 10.6388 15.7618 10.3519 15.8514 10.045H0.151367C0.242641 10.351 0.389696 10.6375 0.585117 10.89" fill="#E6E7E8"/>
<path d="M0.149883 10.045H15.8499C15.9318 9.77011 15.9804 9.48642 15.9949 9.19998H0.00488281C0.0296328 9.48898 0.0526328 9.70723 0.149883 10.045Z" fill="#EC1C24"/>
<path d="M6.5 0.75H2.5C0.84325 0.75 0 1.98125 0 3.5V6.665H6.5V0.75Z" fill="#176496"/>
<path d="M0.699516 2.244L0.835516 2.1395L0.971266 2.244L0.918516 2.076L1.05377 1.97325H0.886766L0.835016 1.8045L0.783516 1.97325H0.616766L0.752516 2.076L0.699516 2.244ZM1.59802 2.244L1.73402 2.1395L1.86977 2.244L1.81727 2.076L1.95227 1.97325H1.78552L1.73377 1.8045L1.68227 1.97325H1.51502L1.65077 2.076L1.59802 2.244ZM2.58927 2.244L2.72502 2.1395L2.86102 2.244L2.80827 2.076L2.94327 1.97325H2.77752L2.72502 1.8045L2.67327 1.97325H2.50752L2.64177 2.076L2.58927 2.244ZM3.57327 2.244L3.70902 2.1395L3.84502 2.244L3.79252 2.076L3.92752 1.97325H3.76002L3.70902 1.8045L3.65752 1.97325H3.49052L3.62602 2.076L3.57327 2.244ZM4.56077 2.244L4.69677 2.1395L4.83252 2.244L4.78002 2.076L4.91527 1.97325H4.74802L4.69652 1.8045L4.64502 1.97325H4.47827L4.61327 2.076L4.56077 2.244ZM1.17777 2.68275L1.31352 2.5785L1.44927 2.68275L1.39702 2.515L1.53202 2.41225H1.36502L1.31327 2.24375L1.26252 2.41225H1.09502L1.23027 2.515L1.17777 2.68275ZM2.07652 2.68275L2.21227 2.5785L2.34802 2.68275L2.29552 2.515L2.43052 2.41225H2.26252L2.21227 2.24375L2.16052 2.41225H1.99377L2.12902 2.515L2.07652 2.68275ZM3.06777 2.68275L3.20327 2.5785L3.33902 2.68275L3.28652 2.515L3.42177 2.41225H3.25502L3.20327 2.24375L3.15152 2.41225H2.98452L3.11977 2.515L3.06777 2.68275ZM4.05127 2.68275L4.18727 2.5785L4.32327 2.68275L4.27002 2.515L4.40552 2.41225H4.23877L4.18702 2.24375L4.13577 2.41225H3.96877L4.10402 2.515L4.05127 2.68275ZM5.04002 2.68275L5.17477 2.5785L5.31052 2.68275L5.25752 2.515L5.39302 2.41225H5.22652L5.17452 2.24375L5.12327 2.41225H4.95627L5.09152 2.515L5.04002 2.68275ZM5.59677 2.244L5.73252 2.1395L5.86852 2.244L5.81577 2.076L5.95077 1.97325H5.78502L5.73227 1.8045L5.68077 1.97325H5.51252L5.64927 2.076L5.59677 2.244ZM0.686266 5.755L0.822266 5.65175L0.958016 5.755L0.905516 5.5885L1.04052 5.4855L0.873766 5.486L0.821766 5.3175L0.770766 5.486L0.603516 5.4855L0.738766 5.5885L0.686266 5.755ZM1.58502 5.755L1.72077 5.65175L1.85677 5.755L1.80402 5.5885L1.93902 5.4855L1.77252 5.486L1.72052 5.3175L1.66927 5.486L1.50252 5.4855L1.63752 5.5885L1.58502 5.755ZM2.57627 5.755L2.71202 5.65175L2.84802 5.755L2.79527 5.5885L2.93027 5.4855L2.76252 5.486L2.71177 5.3175L2.66027 5.486L2.49352 5.4855L2.62877 5.5885L2.57627 5.755ZM3.56027 5.755L3.69602 5.65175L3.83177 5.755L3.78002 5.5885L3.91427 5.4855L3.74727 5.486L3.69577 5.3175L3.64427 5.486L3.47752 5.4855L3.61252 5.5885L3.56027 5.755ZM4.54752 5.755L4.68352 5.65175L4.81952 5.755L4.76752 5.5885L4.90177 5.4855L4.73502 5.486L4.68327 5.3175L4.63202 5.486L4.46502 5.4855L4.60002 5.5885L4.54752 5.755ZM5.58352 5.755L5.71927 5.65175L5.85527 5.755L5.80252 5.5885L5.93777 5.4855L5.77002 5.486L5.71902 5.3175L5.66752 5.486L5.50002 5.4855L5.63602 5.5885L5.58352 5.755ZM0.699516 3.122L0.835516 3.0175L0.971266 3.122L0.918516 2.954L1.05377 2.85125L0.886766 2.85175L0.835016 2.68275L0.783516 2.85175L0.616766 2.85125L0.752516 2.954L0.699516 3.122ZM1.59802 3.122L1.73402 3.0175L1.86977 3.122L1.81727 2.954L1.95227 2.85125L1.78552 2.85175L1.73377 2.68275L1.68227 2.85175L1.51502 2.85125L1.65077 2.954L1.59802 3.122ZM2.58927 3.122L2.72502 3.0175L2.86102 3.122L2.80827 2.954L2.94327 2.85125L2.77752 2.85175L2.72502 2.68275L2.67327 2.85175L2.50752 2.85125L2.64177 2.954L2.58927 3.122ZM3.57327 3.122L3.70902 3.0175L3.84502 3.122L3.79252 2.954L3.92752 2.85125L3.76002 2.85175L3.70902 2.68275L3.65752 2.85175L3.49052 2.85125L3.62602 2.954L3.57327 3.122ZM4.56077 3.122L4.69677 3.0175L4.83252 3.122L4.78002 2.954L4.91527 2.85125L4.74802 2.85175L4.69652 2.68275L4.64502 2.85175L4.47827 2.85125L4.61327 2.954L4.56077 3.122ZM1.17777 3.561L1.31352 3.45675L1.44927 3.561L1.39702 3.39325L1.53202 3.29H1.36502L1.31327 3.122L1.26252 3.29H1.09502L1.23027 3.39325L1.17777 3.561ZM2.07652 3.561L2.21227 3.45675L2.34802 3.561L2.29552 3.39325L2.43052 3.29H2.26252L2.21227 3.122L2.16052 3.29H1.99377L2.12902 3.39325L2.07652 3.561ZM3.06777 3.561L3.20327 3.45675L3.33902 3.561L3.28652 3.39325L3.42177 3.29H3.25502L3.20327 3.122L3.15152 3.29H2.98452L3.11977 3.39325L3.06777 3.561ZM4.05127 3.561L4.18727 3.45675L4.32327 3.561L4.27002 3.39325L4.40552 3.29H4.23877L4.18702 3.122L4.13577 3.29H3.96877L4.10402 3.39325L4.05127 3.561ZM5.04002 3.561L5.17477 3.45675L5.31052 3.561L5.25752 3.39325L5.39302 3.29H5.22652L5.17452 3.122L5.12327 3.29H4.95627L5.09152 3.39325L5.04002 3.561ZM5.59677 3.122L5.73252 3.0175L5.86852 3.122L5.81577 2.954L5.95077 2.85125L5.78502 2.85175L5.73227 2.68275L5.68077 2.85175L5.51252 2.85125L5.64927 2.954L5.59677 3.122ZM0.686266 4L0.822266 3.89575L0.958016 4L0.905266 3.8325L1.04052 3.7295L0.873516 3.73L0.821766 3.561L0.770766 3.73L0.603516 3.7295L0.738766 3.8325L0.686266 4ZM1.58502 4L1.72077 3.89575L1.85677 4L1.80402 3.8325L1.93902 3.7295L1.77252 3.73L1.72052 3.561L1.66927 3.73L1.50252 3.7295L1.63727 3.8325L1.58502 4ZM2.57627 4L2.71202 3.89575L2.84777 4L2.79527 3.8325L2.93027 3.7295L2.76252 3.73L2.71177 3.561L2.66027 3.73L2.49352 3.7295L2.62877 3.8325L2.57627 4ZM3.56027 4L3.69577 3.89575L3.83177 4L3.78002 3.8325L3.91427 3.7295L3.74727 3.73L3.69577 3.561L3.64427 3.73L3.47752 3.7295L3.61252 3.8325L3.56027 4ZM4.54752 4L4.68352 3.89575L4.81927 4L4.76752 3.8325L4.90177 3.7295L4.73477 3.73L4.68327 3.561L4.63202 3.73L4.46502 3.7295L4.60002 3.8325L4.54752 4ZM1.16452 4.439L1.30027 4.335L1.43602 4.439L1.38377 4.2725L1.51852 4.169H1.35152L1.30002 4L1.24877 4.169H1.08177L1.21702 4.2725L1.16452 4.439ZM2.06327 4.439L2.19902 4.335L2.33477 4.439L2.28227 4.2725L2.41727 4.169H2.25002L2.19877 4L2.14727 4.169H1.98027L2.11577 4.2725L2.06327 4.439ZM3.05477 4.439L3.19002 4.335L3.32602 4.439L3.27252 4.2725L3.40852 4.169H3.24177L3.19002 4L3.13852 4.169H2.97152L3.10677 4.2725L3.05477 4.439ZM4.03752 4.439L4.17402 4.335L4.31002 4.439L4.25752 4.2725L4.39227 4.169H4.22552L4.17377 4L4.12252 4.169H3.95552L4.09077 4.2725L4.03752 4.439ZM5.02502 4.439L5.16152 4.335L5.29752 4.439L5.24477 4.2725L5.38027 4.169H5.21352L5.16152 4L5.11002 4.169H4.94302L5.07827 4.2725L5.02502 4.439ZM5.58352 4L5.71927 3.89575L5.85502 4L5.80252 3.8325L5.93777 3.7295L5.77002 3.73L5.71902 3.561L5.66752 3.73L5.50002 3.7295L5.63602 3.8325L5.58352 4ZM0.686266 4.87825L0.822266 4.775L0.958016 4.87825L0.905266 4.7105L1.04052 4.6075L0.873516 4.608L0.821766 4.439L0.770766 4.608L0.603516 4.6075L0.738766 4.7105L0.686266 4.87825ZM1.58502 4.87825L1.72077 4.775L1.85677 4.87825L1.80402 4.7105L1.93902 4.6075L1.77252 4.608L1.72052 4.439L1.66927 4.608L1.50252 4.6075L1.63727 4.7105L1.58502 4.87825ZM2.57627 4.87825L2.71202 4.775L2.84777 4.87825L2.79527 4.7105L2.93027 4.6075L2.76252 4.608L2.71177 4.439L2.66027 4.608L2.49352 4.6075L2.62877 4.7105L2.57627 4.87825ZM3.56027 4.87825L3.69577 4.775L3.83177 4.87825L3.78002 4.7105L3.91427 4.6075L3.74727 4.608L3.69577 4.439L3.64427 4.608L3.47752 4.6075L3.61252 4.7105L3.56027 4.87825ZM4.54752 4.87825L4.68352 4.775L4.81927 4.87825L4.76752 4.7105L4.90177 4.6075L4.73477 4.608L4.68327 4.439L4.63202 4.608L4.46502 4.6075L4.60002 4.7105L4.54752 4.87825ZM1.16452 5.3175L1.30027 5.213L1.43602 5.3175L1.38377 5.1495L1.51852 5.0475H1.35152L1.30002 4.87825L1.24877 5.0475H1.08177L1.21702 5.1495L1.16452 5.3175ZM2.06327 5.3175L2.19902 5.213L2.33477 5.3175L2.28227 5.1495L2.41727 5.0475H2.25002L2.19877 4.87825L2.14727 5.0475H1.98027L2.11577 5.1495L2.06327 5.3175ZM3.05477 5.3175L3.19002 5.213L3.32602 5.3175L3.27252 5.1495L3.40852 5.0475H3.24177L3.19002 4.87825L3.13852 5.0475H2.97152L3.10677 5.1495L3.05477 5.3175ZM4.03752 5.3175L4.17402 5.213L4.31002 5.3175L4.25752 5.1495L4.39227 5.0475H4.22552L4.17377 4.87825L4.12252 5.0475H3.95552L4.09077 5.1495L4.03752 5.3175ZM5.02502 5.3175L5.16152 5.213L5.29752 5.3175L5.24477 5.1495L5.38027 5.0475H5.21352L5.16152 4.87825L5.11002 5.0475H4.94302L5.07827 5.1495L5.02502 5.3175ZM5.58352 4.87825L5.71927 4.775L5.85502 4.87825L5.80252 4.7105L5.93777 4.6075L5.77002 4.608L5.71902 4.439L5.66752 4.608L5.50002 4.6075L5.63602 4.7105L5.58352 4.87825Z" fill="white"/>
</svg>
