<svg width="19" height="21" viewBox="0 0 19 21" fill="none" xmlns="http://www.w3.org/2000/svg">
<path d="M14.5 20.6029C13.8 20.6029 13.2083 20.2964 12.725 19.6834C12.2417 19.0704 12 18.32 12 17.4322C12 16.5444 12.2417 15.794 12.725 15.181C13.2083 14.568 13.8 14.2615 14.5 14.2615C14.6333 14.2615 14.7833 14.2776 14.95 14.3097C15.1167 14.3418 15.3 14.4103 15.5 14.5152V9.18843C15.5 8.82909 15.596 8.52809 15.788 8.28542C15.98 8.04276 16.2173 7.92101 16.5 7.92016H18C18.2833 7.92016 18.521 8.04192 18.713 8.28542C18.905 8.52893 19.0007 8.82993 19 9.18843C18.9993 9.54693 18.9033 9.84836 18.712 10.0927C18.5207 10.3371 18.2833 10.4584 18 10.4567H17V17.4322C17 18.32 16.7583 19.0704 16.275 19.6834C15.7917 20.2964 15.2 20.6029 14.5 20.6029ZM8 10.4567C6.9 10.4567 5.95833 9.95996 5.175 8.96649C4.39167 7.97301 4 6.77872 4 5.38362C4 3.98853 4.39167 2.79424 5.175 1.80076C5.95833 0.807286 6.9 0.310547 8 0.310547C9.1 0.310547 10.0417 0.807286 10.825 1.80076C11.6083 2.79424 12 3.98853 12 5.38362C12 6.77872 11.6083 7.97301 10.825 8.96649C10.0417 9.95996 9.1 10.4567 8 10.4567ZM1 20.6029C0.716667 20.6029 0.479333 20.4811 0.288 20.2376C0.0966668 19.9941 0.000666667 19.6931 0 19.3346V17.0517C0 16.3119 0.146 15.646 0.438 15.0542C0.73 14.4623 1.11733 14.0079 1.6 13.6908C2.63333 13.0355 3.68333 12.5443 4.75 12.2171C5.81667 11.8898 6.9 11.7258 8 11.725C8.46667 11.725 8.92933 11.7567 9.388 11.8201C9.84667 11.8835 10.309 11.9786 10.775 12.1055C11.0583 12.19 11.2373 12.4119 11.312 12.7713C11.3867 13.1306 11.3077 13.4583 11.075 13.7542C10.725 14.2826 10.4623 14.8589 10.287 15.4829C10.1117 16.1068 10.0243 16.7566 10.025 17.4322C10.025 17.707 10.0377 17.9767 10.063 18.2413C10.0883 18.506 10.134 18.7753 10.2 19.0492C10.2833 19.4297 10.246 19.784 10.088 20.112C9.93 20.4401 9.709 20.6037 9.425 20.6029H1Z" fill="white"/>
</svg>
