<svg width="20" height="18" viewBox="0 0 20 18" fill="none" xmlns="http://www.w3.org/2000/svg">
<path d="M6.66667 17.6H2.22222C1.61111 17.6 1.08815 17.4087 0.653333 17.026C0.218519 16.6434 0.000740741 16.1829 0 15.6444V8.8C0 7.57778 0.264074 6.43313 0.792222 5.36605C1.32037 4.29896 2.03296 3.37008 2.93 2.57938C3.82704 1.78868 4.88259 1.16128 6.09667 0.697157C7.31074 0.233038 8.61185 0.000653219 10 1.36752e-06C11.3881 -0.000650484 12.6893 0.231735 13.9033 0.697157C15.1174 1.16258 16.173 1.78966 17.07 2.5784C17.967 3.36714 18.68 4.29603 19.2089 5.36507C19.7378 6.43411 20.0015 7.57908 20 8.8V15.6444C20 16.1822 19.7826 16.6428 19.3478 17.026C18.913 17.4093 18.3896 17.6007 17.7778 17.6H13.3333V9.77778H17.7778V8.8C17.7778 6.89333 17.0233 5.27609 15.5144 3.94827C14.0056 2.62045 12.1674 1.95621 10 1.95556C7.83259 1.95491 5.99481 2.61914 4.48667 3.94827C2.97852 5.27739 2.2237 6.89464 2.22222 8.8V9.77778H6.66667V17.6Z" fill="white"/>
</svg>
