<svg width="19" height="24" viewBox="0 0 19 24" fill="none" xmlns="http://www.w3.org/2000/svg">
<path d="M13.4775 11.1184L7.36316 7.23984C7.19031 7.13015 6.99821 7.07834 6.80512 7.08934C6.61203 7.10034 6.42437 7.17379 6.25997 7.30271C6.09557 7.43163 5.9599 7.61173 5.86586 7.82589C5.77181 8.04005 5.72252 8.28116 5.72266 8.52629V15.8521C5.72252 16.0972 5.77181 16.3383 5.86586 16.5525C5.9599 16.7667 6.09557 16.9468 6.25997 17.0757C6.42437 17.2046 6.61203 17.278 6.80512 17.2891C6.99821 17.3001 7.19031 17.2482 7.36316 17.1385L13.4775 13.26C13.6342 13.1605 13.7659 13.0076 13.8579 12.8184C13.95 12.6293 13.9988 12.4114 13.9988 12.1892C13.9988 11.9669 13.95 11.7491 13.8579 11.56C13.7659 11.3708 13.6342 11.2179 13.4775 11.1184Z" stroke="white" stroke-width="2" stroke-linecap="round" stroke-linejoin="round"/>
<path d="M9.5 22.9698C14.1944 22.9698 18 18.1433 18 12.1895C18 6.23568 14.1944 1.40918 9.5 1.40918C4.80558 1.40918 1 6.23568 1 12.1895C1 18.1433 4.80558 22.9698 9.5 22.9698Z" stroke="white" stroke-width="2"/>
</svg>
