<svg width="20" height="27" viewBox="0 0 20 27" fill="none" xmlns="http://www.w3.org/2000/svg">
<path d="M0 13.5011C0 10.1374 1.05357 6.9115 2.92893 4.53303C4.8043 2.15457 7.34784 0.818359 10 0.818359C12.6522 0.818359 15.1957 2.15457 17.0711 4.53303C18.9464 6.9115 20 10.1374 20 13.5011C20 16.8647 18.9464 20.0906 17.0711 22.4691C15.1957 24.8475 12.6522 26.1837 10 26.1837C7.34784 26.1837 4.8043 24.8475 2.92893 22.4691C1.05357 20.0906 0 16.8647 0 13.5011ZM10 3.19636C7.84512 3.19636 5.77849 4.28203 4.25476 6.21454C2.73102 8.14704 1.875 10.7681 1.875 13.5011C1.875 16.234 2.73102 18.8551 4.25476 20.7876C5.77849 22.7201 7.84512 23.8057 10 23.8057C12.1549 23.8057 14.2215 22.7201 15.7452 20.7876C17.269 18.8551 18.125 16.234 18.125 13.5011C18.125 10.7681 17.269 8.14704 15.7452 6.21454C14.2215 4.28203 12.1549 3.19636 10 3.19636ZM8.125 13.1047C8.125 12.7894 8.22377 12.4869 8.39959 12.264C8.5754 12.041 8.81386 11.9157 9.0625 11.9157H10.3125C10.5611 11.9157 10.7996 12.041 10.9754 12.264C11.1512 12.4869 11.25 12.7894 11.25 13.1047V17.4644H11.5625C11.8111 17.4644 12.0496 17.5897 12.2254 17.8126C12.4012 18.0356 12.5 18.3381 12.5 18.6534C12.5 18.9687 12.4012 19.2712 12.2254 19.4941C12.0496 19.7171 11.8111 19.8424 11.5625 19.8424H9.0625C8.81386 19.8424 8.5754 19.7171 8.39959 19.4941C8.22377 19.2712 8.125 18.9687 8.125 18.6534C8.125 18.3381 8.22377 18.0356 8.39959 17.8126C8.5754 17.5897 8.81386 17.4644 9.0625 17.4644H9.375V14.2937H9.0625C8.81386 14.2937 8.5754 14.1685 8.39959 13.9455C8.22377 13.7225 8.125 13.4201 8.125 13.1047ZM10 10.3304C9.66848 10.3304 9.35054 10.1634 9.11612 9.86604C8.8817 9.56874 8.75 9.1655 8.75 8.74504C8.75 8.32458 8.8817 7.92135 9.11612 7.62404C9.35054 7.32673 9.66848 7.15971 10 7.15971C10.3315 7.15971 10.6495 7.32673 10.8839 7.62404C11.1183 7.92135 11.25 8.32458 11.25 8.74504C11.25 9.1655 11.1183 9.56874 10.8839 9.86604C10.6495 10.1634 10.3315 10.3304 10 10.3304Z" fill="white"/>
</svg>
