<svg width="19" height="24" viewBox="0 0 19 24" fill="none" xmlns="http://www.w3.org/2000/svg">
<path fillRule="evenodd" cliprule="evenodd" d="M8.7527 1.34302C8.95092 1.10525 9.21972 0.97168 9.5 0.97168C9.78028 0.97168 10.0491 1.10525 10.2473 1.34302L16.5893 8.95272L18.7033 11.4893C18.8958 11.7285 19.0024 12.0489 19 12.3814C18.9976 12.7139 18.8864 13.032 18.6904 13.2672C18.4944 13.5023 18.2293 13.6357 17.9522 13.6386C17.675 13.6415 17.408 13.5137 17.2087 13.2826L16.899 12.911V21.264C16.899 21.9367 16.6763 22.5819 16.2798 23.0576C15.8834 23.5333 15.3457 23.8005 14.785 23.8005H11.614C11.3337 23.8005 11.0648 23.6669 10.8666 23.4291C10.6684 23.1912 10.557 22.8686 10.557 22.5322V18.7274H8.443V22.5322C8.443 22.8686 8.33164 23.1912 8.13341 23.4291C7.93519 23.6669 7.66634 23.8005 7.386 23.8005H4.21501C3.65434 23.8005 3.11664 23.5333 2.72018 23.0576C2.32373 22.5819 2.10101 21.9367 2.10101 21.264V12.911L1.79131 13.2826C1.59196 13.5137 1.32496 13.6415 1.04781 13.6386C0.770672 13.6357 0.505564 13.5023 0.309588 13.2672C0.113612 13.032 0.00244824 12.7139 3.99573e-05 12.3814C-0.00236833 12.0489 0.104171 11.7285 0.296712 11.4893L2.41071 8.95272L8.7527 1.34302Z" fill="#E5E5E5"/>
</svg>
